<svg width="36" height="36" viewBox="0 0 36 36" fill="none" xmlns="http://www.w3.org/2000/svg">
<g clip-path="url(#clip0_3_160)">
<path d="M25.875 27C26.4963 27 27 26.4963 27 25.875C27 25.2537 26.4963 24.75 25.875 24.75C25.2537 24.75 24.75 25.2537 24.75 25.875C24.75 26.4963 25.2537 27 25.875 27Z" fill="#26D9CA"/>
<path d="M22.5 24.75H9V27H22.5V24.75Z" fill="#26D9CA"/>
<path d="M25.875 11.25C26.4963 11.25 27 10.7463 27 10.125C27 9.50368 26.4963 9 25.875 9C25.2537 9 24.75 9.50368 24.75 10.125C24.75 10.7463 25.2537 11.25 25.875 11.25Z" fill="#26D9CA"/>
<path d="M22.5 9H9V11.25H22.5V9Z" fill="#26D9CA"/>
<path d="M29.25 15.75C29.8467 15.75 30.419 15.5129 30.841 15.091C31.2629 14.669 31.5 14.0967 31.5 13.5V6.75C31.5 6.15326 31.2629 5.58097 30.841 5.15901C30.419 4.73705 29.8467 4.5 29.25 4.5H6.75C6.15326 4.5 5.58097 4.73705 5.15901 5.15901C4.73705 5.58097 4.5 6.15326 4.5 6.75V13.5C4.5 14.0967 4.73705 14.669 5.15901 15.091C5.58097 15.5129 6.15326 15.75 6.75 15.75H9V20.25H6.75C6.15326 20.25 5.58097 20.4871 5.15901 20.909C4.73705 21.331 4.5 21.9033 4.5 22.5V29.25C4.5 29.8467 4.73705 30.419 5.15901 30.841C5.58097 31.2629 6.15326 31.5 6.75 31.5H29.25C29.8467 31.5 30.419 31.2629 30.841 30.841C31.2629 30.419 31.5 29.8467 31.5 29.25V22.5C31.5 21.9033 31.2629 21.331 30.841 20.909C30.419 20.4871 29.8467 20.25 29.25 20.25H27V15.75H29.25ZM6.75 6.75H29.25V13.5H6.75V6.75ZM29.25 29.25H6.75V22.5H29.25V29.25ZM24.75 20.25H11.25V15.75H24.75V20.25Z" fill="#26D9CA"/>
</g>
<defs>
<clipPath id="clip0_3_160">
<rect width="36" height="36" fill="white"/>
</clipPath>
</defs>
</svg>
