<svg width="28" height="38" viewBox="0 0 28 38" fill="none" xmlns="http://www.w3.org/2000/svg">
<path d="M25.5535 16.1237C26.1989 15.7955 26.8732 15.3995 27.5333 14.9333V18.6667C27.5333 22.5326 21.3698 25.6667 13.7667 25.6667C6.16354 25.6667 0 22.5326 0 18.6667V14.9333C0.660158 15.3995 1.3344 15.7955 1.97995 16.1237C5.23354 17.7781 9.40718 18.6667 13.7667 18.6667C18.1262 18.6667 22.2997 17.7781 25.5535 16.1237Z" fill="#26D9CA"/>
<path d="M0 26.6V30.3333C0 34.1994 6.16354 37.3333 13.7667 37.3333C21.3698 37.3333 27.5333 34.1994 27.5333 30.3333V26.6C26.8732 27.0662 26.1989 27.4621 25.5535 27.7904C22.2997 29.4448 18.1262 30.3333 13.7667 30.3333C9.40718 30.3333 5.23354 29.4448 1.97995 27.7904C1.3344 27.4621 0.660158 27.0662 0 26.6Z" fill="#26D9CA"/>
<path d="M13.7667 0C21.3698 0 27.5333 3.13402 27.5333 7C27.5333 10.866 21.3698 14 13.7667 14C6.16354 14 0 10.866 0 7C0 3.13402 6.16354 0 13.7667 0Z" fill="#26D9CA"/>
</svg>
