<svg width="28" height="28" viewBox="0 0 28 28" fill="none" xmlns="http://www.w3.org/2000/svg">
<path d="M4.75343 3.49278C4.82136 2.291 5.10843 1.76841 5.93167 1.34875C6.81746 0.897059 8.21453 1.10726 9.85846 1.93972C10.5665 2.29845 10.6386 2.30575 11.8795 2.14665C13.529 1.9351 15.6524 1.93585 17.1748 2.14859C18.3261 2.30947 18.4017 2.30143 19.1115 1.94196C21.4449 0.760302 23.2872 0.837618 23.9543 2.14516C24.2873 2.79782 24.3491 4.49134 24.0909 5.88812C23.9478 6.66248 23.9629 6.75916 24.3078 7.26732C26.7341 10.8428 24.9859 16.6385 20.8282 18.8014C20.5101 18.967 20.242 19.0694 20.0235 19.1528C19.3525 19.409 19.1488 19.4868 19.3954 20.6661C19.5142 21.2333 19.6572 22.6436 19.7135 23.8002C19.8151 25.8909 19.8136 25.9055 19.4469 26.332C18.9478 26.9122 18.2284 26.922 17.741 26.3552C17.4231 25.9856 17.392 25.8111 17.392 24.3851C17.392 22.2777 17.161 20.877 16.6153 19.6768C15.9663 18.2484 16.4474 17.7158 17.9316 17.3966C19.9946 16.9528 21.6059 15.6797 22.504 13.7837C23.3579 11.9814 23.4866 9.49085 21.9429 7.97614C21.5038 7.45443 21.4733 6.98188 21.7868 5.55695C21.9039 5.02438 22.0021 4.3373 22.005 4.02997C22.0095 3.54461 21.9653 3.47132 21.6672 3.47132C21.4785 3.47132 20.7578 3.74573 20.0657 4.08107L18.9611 4.61645C18.8606 4.66511 18.7483 4.68383 18.6375 4.67111C15.8287 4.34871 13.1598 4.34373 10.3374 4.67237C10.2261 4.68532 10.1132 4.66661 10.0125 4.6177L8.90845 4.08197C8.21632 3.74602 7.49559 3.47132 7.30699 3.47132C6.87094 3.47132 6.86438 3.79325 7.26184 5.70592C7.50464 6.87404 7.66802 7.13433 6.96614 8.06835C5.91409 9.4684 5.6513 11.2069 6.21546 13.0335C6.92651 15.3354 8.66771 16.8904 11.1156 17.4092C12.5913 17.722 12.977 18.1301 12.4135 19.8223C11.97 21.1539 11.6895 21.4971 11.0449 21.4971C10.1776 21.4971 9.63425 20.7458 9.93324 19.9596C10.0649 19.6131 10.0258 19.5761 9.21326 19.2798C6.73299 18.3755 4.83596 16.3486 3.96864 13.676C3.29826 11.6105 3.59323 8.92196 4.66867 7.29696C5.03484 6.74367 5.04051 6.69675 4.86963 5.63754C4.77295 5.03793 4.72066 4.07288 4.75343 3.49278Z" fill="white"/>
<path d="M3.88739 18.603C3.52998 18.0669 2.80563 17.922 2.26951 18.2795C1.73341 18.6368 1.58853 19.3612 1.94594 19.8973C2.2098 20.2931 2.52547 20.6183 2.79353 20.8863C2.84295 20.9357 2.89097 20.9835 2.93786 21.03C3.16241 21.2531 3.36067 21.45 3.5598 21.6838C4.00023 22.2008 4.43961 22.897 4.68932 24.1456C4.80055 24.7017 5.20031 25.0013 5.42181 25.1322C5.66203 25.2741 5.92449 25.3578 6.14048 25.4122C6.58231 25.5237 7.11866 25.5815 7.62768 25.6152C8.18646 25.6523 8.79193 25.6644 9.33334 25.6676C9.33374 26.3115 9.85592 26.8335 10.5 26.8335C11.1443 26.8335 11.6667 26.3112 11.6667 25.6668V24.5001C11.6667 23.8558 11.1443 23.3335 10.5 23.3335C10.39 23.3335 10.271 23.3338 10.145 23.3343C9.46032 23.3364 8.56788 23.3391 7.7819 23.287C7.40288 23.262 7.09131 23.2264 6.86283 23.1829C6.51099 21.8016 5.94258 20.8827 5.33604 20.1706C5.06792 19.856 4.79027 19.5807 4.56444 19.3567C4.52216 19.3148 4.4817 19.2746 4.44345 19.2364C4.18287 18.9759 4.01242 18.7906 3.88739 18.603Z" fill="white"/>
</svg>
