<svg width="493" height="131" viewBox="0 0 493 131" fill="none" xmlns="http://www.w3.org/2000/svg">
<rect x="0.25" y="0.25" width="492.5" height="130.5" rx="13.75" fill="#0F1319" stroke="#596371" stroke-width="0.5"/>
<path d="M0 14C0 6.26801 6.26801 0 14 0H479C486.732 0 493 6.26801 493 14V32H0V14Z" fill="#2B303B"/>
<circle cx="25" cy="17" r="8" fill="#EF4444"/>
<circle cx="70" cy="17" r="8" fill="#33CC33"/>
<circle cx="47" cy="17" r="8" fill="#F5C73D"/>
<path d="M32 70.1964H39.4583M39.4583 70.1964L36.2619 67M39.4583 70.1964L36.2619 73.3928" stroke="#32CA32" stroke-width="1.5" stroke-linecap="round" stroke-linejoin="round"/>
<path d="M57.2891 69.5625C57.2943 69.9583 57.2526 70.3255 57.1641 70.6641C57.0755 70.9974 56.9375 71.2865 56.75 71.5312C56.5625 71.776 56.3281 71.9688 56.0469 72.1094C55.7708 72.2448 55.4479 72.3125 55.0781 72.3125C54.7917 72.3125 54.5339 72.2656 54.3047 72.1719C54.0755 72.0729 53.862 71.9505 53.6641 71.8047C53.4714 71.6589 53.2917 71.5 53.125 71.3281C52.9635 71.1562 52.8021 70.9974 52.6406 70.8516C52.4844 70.7057 52.3281 70.5859 52.1719 70.4922C52.0156 70.3932 51.849 70.3438 51.6719 70.3438C51.3646 70.3438 51.1354 70.4661 50.9844 70.7109C50.8385 70.9557 50.7656 71.3411 50.7656 71.8672H49.5156C49.5052 71.4714 49.5443 71.1068 49.6328 70.7734C49.7266 70.4349 49.8646 70.1432 50.0469 69.8984C50.2344 69.6484 50.4661 69.4557 50.7422 69.3203C51.0234 69.1797 51.349 69.1094 51.7188 69.1094C52.0052 69.1094 52.263 69.1589 52.4922 69.2578C52.7214 69.3516 52.9323 69.4714 53.125 69.6172C53.3229 69.763 53.5026 69.9219 53.6641 70.0938C53.8307 70.2656 53.9922 70.4245 54.1484 70.5703C54.3099 70.7161 54.4688 70.8385 54.625 70.9375C54.7812 71.0312 54.9479 71.0781 55.125 71.0781C55.4531 71.0781 55.6875 70.9583 55.8281 70.7188C55.9688 70.4792 56.0391 70.0938 56.0391 69.5625H57.2891Z" fill="#CCA735"/>
<path d="M35.5547 97H34.1953V91.9922C34.1953 91.388 34.0807 90.9375 33.8516 90.6406C33.6276 90.3385 33.3047 90.1875 32.8828 90.1875C32.7005 90.1875 32.5286 90.2135 32.3672 90.2656C32.2109 90.3125 32.0469 90.3984 31.875 90.5234C31.7031 90.6432 31.5156 90.8073 31.3125 91.0156C31.1094 91.224 30.875 91.4844 30.6094 91.7969V97H29.25V85.9609H30.6094V89.1562L30.5625 90.3906C30.776 90.1354 30.9844 89.9219 31.1875 89.75C31.3958 89.5729 31.6016 89.4297 31.8047 89.3203C32.013 89.2109 32.224 89.1328 32.4375 89.0859C32.651 89.0391 32.8724 89.0156 33.1016 89.0156C33.8828 89.0156 34.487 89.2552 34.9141 89.7344C35.3411 90.2083 35.5547 90.9245 35.5547 91.8828V97ZM42.6059 97L42.5747 95.9453C42.1476 96.3672 41.7127 96.6719 41.27 96.8594C40.8325 97.0469 40.3716 97.1406 39.8872 97.1406C39.4393 97.1406 39.0565 97.0833 38.7388 96.9688C38.421 96.8542 38.158 96.6979 37.9497 96.5C37.7466 96.2969 37.5955 96.0599 37.4966 95.7891C37.4028 95.5182 37.3559 95.224 37.3559 94.9062C37.3559 94.1198 37.6476 93.5052 38.2309 93.0625C38.8195 92.6146 39.6867 92.3906 40.8325 92.3906H42.4575V91.7031C42.4575 91.2396 42.3091 90.8698 42.0122 90.5938C41.7153 90.3125 41.2622 90.1719 40.6528 90.1719C40.2101 90.1719 39.7726 90.2214 39.3403 90.3203C38.9132 90.4193 38.4705 90.5599 38.0122 90.7422V89.5156C38.1841 89.4531 38.3742 89.3932 38.5825 89.3359C38.796 89.2734 39.02 89.2188 39.2544 89.1719C39.4888 89.125 39.7335 89.0885 39.9888 89.0625C40.244 89.0312 40.5018 89.0156 40.7622 89.0156C41.2361 89.0156 41.6632 89.0677 42.0434 89.1719C42.4236 89.276 42.744 89.4349 43.0044 89.6484C43.27 89.862 43.4731 90.1302 43.6138 90.4531C43.7544 90.776 43.8247 91.1562 43.8247 91.5938V97H42.6059ZM42.4575 93.4297H40.7309C40.3924 93.4297 40.1007 93.4635 39.8559 93.5312C39.6111 93.599 39.4106 93.6953 39.2544 93.8203C39.0981 93.9453 38.9809 94.0964 38.9028 94.2734C38.8299 94.4453 38.7934 94.6406 38.7934 94.8594C38.7934 95.0104 38.8169 95.1562 38.8638 95.2969C38.9106 95.4323 38.9861 95.5547 39.0903 95.6641C39.1945 95.7682 39.3299 95.8516 39.4966 95.9141C39.6632 95.9766 39.8664 96.0078 40.1059 96.0078C40.4184 96.0078 40.7752 95.9141 41.1763 95.7266C41.5825 95.5339 42.0096 95.2318 42.4575 94.8203V93.4297ZM52.5869 92.9375C52.5869 93.5885 52.4957 94.1719 52.3134 94.6875C52.1364 95.1979 51.8811 95.6328 51.5478 95.9922C51.2197 96.3464 50.8186 96.6198 50.3447 96.8125C49.8707 97 49.3369 97.0938 48.7431 97.0938C48.2796 97.0938 47.8056 97.0495 47.3213 96.9609C46.8369 96.8724 46.3577 96.7318 45.8838 96.5391V85.9609H47.2431V89L47.1806 90.4531C47.5713 89.9271 47.9879 89.5573 48.4306 89.3438C48.8785 89.125 49.3577 89.0156 49.8681 89.0156C50.316 89.0156 50.7093 89.1094 51.0478 89.2969C51.3864 89.4844 51.6702 89.75 51.8994 90.0938C52.1285 90.4323 52.3004 90.8438 52.415 91.3281C52.5296 91.8073 52.5869 92.3438 52.5869 92.9375ZM51.1963 93C51.1963 92.5885 51.165 92.2109 51.1025 91.8672C51.0452 91.5234 50.9515 91.2292 50.8213 90.9844C50.691 90.7396 50.5244 90.5495 50.3213 90.4141C50.1181 90.2734 49.8759 90.2031 49.5947 90.2031C49.4228 90.2031 49.2483 90.2318 49.0713 90.2891C48.8942 90.3411 48.7093 90.4323 48.5166 90.5625C48.3291 90.6875 48.1285 90.8568 47.915 91.0703C47.7067 91.2786 47.4827 91.5391 47.2431 91.8516V95.6562C47.5088 95.7604 47.7796 95.8438 48.0556 95.9062C48.3317 95.9635 48.5947 95.9922 48.8447 95.9922C49.1572 95.9922 49.4541 95.9427 49.7353 95.8438C50.0218 95.7448 50.2718 95.5807 50.4853 95.3516C50.7041 95.1172 50.8759 94.8099 51.0009 94.4297C51.1311 94.0443 51.1963 93.5677 51.1963 93ZM56.8725 90.2812H54.5522V89.1562H58.2475V95.8672H60.5834V97H54.2944V95.8672H56.8725V90.2812ZM57.3491 85.8672C57.5001 85.8672 57.6407 85.8958 57.7709 85.9531C57.9011 86.0052 58.0131 86.0807 58.1069 86.1797C58.2058 86.2786 58.2814 86.3932 58.3334 86.5234C58.3907 86.6484 58.4194 86.7865 58.4194 86.9375C58.4194 87.0833 58.3907 87.2214 58.3334 87.3516C58.2814 87.4818 58.2058 87.5964 58.1069 87.6953C58.0131 87.7943 57.9011 87.8724 57.7709 87.9297C57.6407 87.9818 57.5001 88.0078 57.3491 88.0078C57.198 88.0078 57.0574 87.9818 56.9272 87.9297C56.797 87.8724 56.6824 87.7943 56.5834 87.6953C56.4897 87.5964 56.4142 87.4818 56.3569 87.3516C56.3048 87.2214 56.2787 87.0833 56.2787 86.9375C56.2787 86.7865 56.3048 86.6484 56.3569 86.5234C56.4142 86.3932 56.4897 86.2786 56.5834 86.1797C56.6824 86.0807 56.797 86.0052 56.9272 85.9531C57.0574 85.8958 57.198 85.8672 57.3491 85.8672ZM69.2206 92.9375C69.2206 93.6354 69.1217 94.2448 68.9238 94.7656C68.731 95.2865 68.4628 95.7188 68.1191 96.0625C67.7753 96.4062 67.3691 96.6641 66.9003 96.8359C66.4316 97.0078 65.9238 97.0938 65.3769 97.0938C65.1269 97.0938 64.8769 97.0807 64.6269 97.0547C64.3821 97.0286 64.1321 96.9844 63.8769 96.9219V100.203H62.5175V89.1562H63.7284L63.8144 90.4688C64.205 89.9323 64.6217 89.5573 65.0644 89.3438C65.5071 89.125 65.9863 89.0156 66.5019 89.0156C66.9498 89.0156 67.343 89.1094 67.6816 89.2969C68.0201 89.4844 68.304 89.75 68.5331 90.0938C68.7623 90.4323 68.9342 90.8438 69.0488 91.3281C69.1633 91.8073 69.2206 92.3438 69.2206 92.9375ZM67.83 93C67.83 92.5885 67.7988 92.2109 67.7363 91.8672C67.679 91.5234 67.5852 91.2292 67.455 90.9844C67.3248 90.7396 67.1581 90.5495 66.955 90.4141C66.7519 90.2734 66.5097 90.2031 66.2284 90.2031C66.0566 90.2031 65.8821 90.2318 65.705 90.2891C65.5279 90.3411 65.343 90.4323 65.1503 90.5625C64.9628 90.6875 64.7623 90.8568 64.5488 91.0703C64.3404 91.2786 64.1165 91.5391 63.8769 91.8516V95.6562C64.1269 95.7604 64.3899 95.8438 64.6659 95.9062C64.942 95.9635 65.2128 95.9922 65.4784 95.9922C66.2128 95.9922 66.7883 95.7448 67.205 95.25C67.6217 94.75 67.83 94 67.83 93ZM76.3187 93.3828H71.6469V92.1016H76.3187V93.3828ZM85.8544 92.9375C85.8544 93.5885 85.7632 94.1719 85.5809 94.6875C85.4039 95.1979 85.1486 95.6328 84.8153 95.9922C84.4872 96.3464 84.0861 96.6198 83.6122 96.8125C83.1382 97 82.6044 97.0938 82.0106 97.0938C81.5471 97.0938 81.0731 97.0495 80.5887 96.9609C80.1044 96.8724 79.6252 96.7318 79.1512 96.5391V85.9609H80.5106V89L80.4481 90.4531C80.8387 89.9271 81.2554 89.5573 81.6981 89.3438C82.146 89.125 82.6252 89.0156 83.1356 89.0156C83.5835 89.0156 83.9768 89.1094 84.3153 89.2969C84.6539 89.4844 84.9377 89.75 85.1669 90.0938C85.396 90.4323 85.5679 90.8438 85.6825 91.3281C85.7971 91.8073 85.8544 92.3438 85.8544 92.9375ZM84.4637 93C84.4637 92.5885 84.4325 92.2109 84.37 91.8672C84.3127 91.5234 84.219 91.2292 84.0887 90.9844C83.9585 90.7396 83.7919 90.5495 83.5887 90.4141C83.3856 90.2734 83.1434 90.2031 82.8622 90.2031C82.6903 90.2031 82.5158 90.2318 82.3387 90.2891C82.1617 90.3411 81.9768 90.4323 81.7841 90.5625C81.5966 90.6875 81.396 90.8568 81.1825 91.0703C80.9742 91.2786 80.7502 91.5391 80.5106 91.8516V95.6562C80.7762 95.7604 81.0471 95.8438 81.3231 95.9062C81.5992 95.9635 81.8622 95.9922 82.1122 95.9922C82.4247 95.9922 82.7216 95.9427 83.0028 95.8438C83.2893 95.7448 83.5393 95.5807 83.7528 95.3516C83.9716 95.1172 84.1434 94.8099 84.2684 94.4297C84.3986 94.0443 84.4637 93.5677 84.4637 93ZM92.5072 97L92.4759 95.9453C92.0489 96.3672 91.614 96.6719 91.1712 96.8594C90.7337 97.0469 90.2728 97.1406 89.7884 97.1406C89.3405 97.1406 88.9577 97.0833 88.64 96.9688C88.3223 96.8542 88.0593 96.6979 87.8509 96.5C87.6478 96.2969 87.4968 96.0599 87.3978 95.7891C87.3041 95.5182 87.2572 95.224 87.2572 94.9062C87.2572 94.1198 87.5489 93.5052 88.1322 93.0625C88.7207 92.6146 89.5879 92.3906 90.7337 92.3906H92.3587V91.7031C92.3587 91.2396 92.2103 90.8698 91.9134 90.5938C91.6166 90.3125 91.1634 90.1719 90.5541 90.1719C90.1114 90.1719 89.6739 90.2214 89.2416 90.3203C88.8145 90.4193 88.3718 90.5599 87.9134 90.7422V89.5156C88.0853 89.4531 88.2754 89.3932 88.4837 89.3359C88.6973 89.2734 88.9212 89.2188 89.1556 89.1719C89.39 89.125 89.6348 89.0885 89.89 89.0625C90.1452 89.0312 90.403 89.0156 90.6634 89.0156C91.1374 89.0156 91.5645 89.0677 91.9447 89.1719C92.3249 89.276 92.6452 89.4349 92.9056 89.6484C93.1712 89.862 93.3744 90.1302 93.515 90.4531C93.6556 90.776 93.7259 91.1562 93.7259 91.5938V97H92.5072ZM92.3587 93.4297H90.6322C90.2936 93.4297 90.002 93.4635 89.7572 93.5312C89.5124 93.599 89.3119 93.6953 89.1556 93.8203C88.9994 93.9453 88.8822 94.0964 88.8041 94.2734C88.7311 94.4453 88.6947 94.6406 88.6947 94.8594C88.6947 95.0104 88.7181 95.1562 88.765 95.2969C88.8119 95.4323 88.8874 95.5547 88.9916 95.6641C89.0957 95.7682 89.2311 95.8516 89.3978 95.9141C89.5645 95.9766 89.7676 96.0078 90.0072 96.0078C90.3197 96.0078 90.6765 95.9141 91.0775 95.7266C91.4837 95.5339 91.9108 95.2318 92.3587 94.8203V93.4297ZM101.996 94.8594C101.996 95.1354 101.949 95.3828 101.855 95.6016C101.762 95.8203 101.634 96.0156 101.473 96.1875C101.311 96.3542 101.124 96.4974 100.91 96.6172C100.696 96.737 100.467 96.8359 100.223 96.9141C99.9829 96.9922 99.7355 97.0495 99.4803 97.0859C99.2251 97.1224 98.9751 97.1406 98.7303 97.1406C98.1991 97.1406 97.7095 97.1172 97.2616 97.0703C96.8189 97.0234 96.384 96.9479 95.9569 96.8438V95.5938C96.4152 95.724 96.8709 95.8229 97.3241 95.8906C97.7772 95.9583 98.2277 95.9922 98.6756 95.9922C99.3267 95.9922 99.8084 95.9036 100.121 95.7266C100.433 95.5495 100.59 95.2969 100.59 94.9688C100.59 94.8281 100.564 94.7031 100.512 94.5938C100.465 94.4792 100.376 94.3724 100.246 94.2734C100.116 94.1693 99.9126 94.0625 99.6366 93.9531C99.3657 93.8438 98.9933 93.7188 98.5194 93.5781C98.1652 93.474 97.8371 93.3568 97.535 93.2266C97.2381 93.0911 96.9803 92.9323 96.7616 92.75C96.5428 92.5677 96.3709 92.3542 96.2459 92.1094C96.1209 91.8646 96.0584 91.5755 96.0584 91.2422C96.0584 91.0234 96.1079 90.7839 96.2069 90.5234C96.311 90.263 96.4855 90.0208 96.7303 89.7969C96.9751 89.5729 97.3058 89.388 97.7225 89.2422C98.1392 89.0911 98.66 89.0156 99.285 89.0156C99.5923 89.0156 99.9334 89.0339 100.308 89.0703C100.683 89.1016 101.074 89.1589 101.48 89.2422V90.4531C101.053 90.349 100.647 90.2734 100.262 90.2266C99.8814 90.1745 99.5506 90.1484 99.2694 90.1484C98.9308 90.1484 98.6444 90.1745 98.41 90.2266C98.1808 90.2786 97.9933 90.3516 97.8475 90.4453C97.7069 90.5339 97.6053 90.6406 97.5428 90.7656C97.4803 90.8854 97.4491 91.0156 97.4491 91.1562C97.4491 91.2969 97.4751 91.4245 97.5272 91.5391C97.5845 91.6536 97.686 91.7656 97.8319 91.875C97.9829 91.9792 98.1913 92.0859 98.4569 92.1953C98.7225 92.2995 99.0689 92.4141 99.4959 92.5391C99.9595 92.6745 100.35 92.8177 100.668 92.9688C100.986 93.1146 101.243 93.2786 101.441 93.4609C101.639 93.6432 101.78 93.849 101.863 94.0781C101.952 94.3073 101.996 94.5677 101.996 94.8594ZM110.805 92.9375C110.805 93.5885 110.714 94.1719 110.532 94.6875C110.354 95.1979 110.099 95.6328 109.766 95.9922C109.438 96.3464 109.037 96.6198 108.563 96.8125C108.089 97 107.555 97.0938 106.961 97.0938C106.498 97.0938 106.024 97.0495 105.539 96.9609C105.055 96.8724 104.576 96.7318 104.102 96.5391V85.9609H105.461V89L105.399 90.4531C105.789 89.9271 106.206 89.5573 106.649 89.3438C107.097 89.125 107.576 89.0156 108.086 89.0156C108.534 89.0156 108.927 89.1094 109.266 89.2969C109.604 89.4844 109.888 89.75 110.118 90.0938C110.347 90.4323 110.519 90.8438 110.633 91.3281C110.748 91.8073 110.805 92.3438 110.805 92.9375ZM109.414 93C109.414 92.5885 109.383 92.2109 109.321 91.8672C109.263 91.5234 109.17 91.2292 109.039 90.9844C108.909 90.7396 108.743 90.5495 108.539 90.4141C108.336 90.2734 108.094 90.2031 107.813 90.2031C107.641 90.2031 107.466 90.2318 107.289 90.2891C107.112 90.3411 106.927 90.4323 106.735 90.5625C106.547 90.6875 106.347 90.8568 106.133 91.0703C105.925 91.2786 105.701 91.5391 105.461 91.8516V95.6562C105.727 95.7604 105.998 95.8438 106.274 95.9062C106.55 95.9635 106.813 95.9922 107.063 95.9922C107.375 95.9922 107.672 95.9427 107.953 95.8438C108.24 95.7448 108.49 95.5807 108.703 95.3516C108.922 95.1172 109.094 94.8099 109.219 94.4297C109.349 94.0443 109.414 93.5677 109.414 93ZM119.247 93.0156C119.247 93.625 119.161 94.1849 118.989 94.6953C118.817 95.2005 118.57 95.6354 118.247 96C117.924 96.3594 117.531 96.6406 117.067 96.8438C116.604 97.0417 116.078 97.1406 115.489 97.1406C114.927 97.1406 114.421 97.0547 113.973 96.8828C113.531 96.7057 113.153 96.4479 112.841 96.1094C112.533 95.7708 112.296 95.3516 112.13 94.8516C111.968 94.3516 111.887 93.776 111.887 93.125C111.887 92.5156 111.973 91.9609 112.145 91.4609C112.317 90.9557 112.565 90.5234 112.887 90.1641C113.21 89.7995 113.604 89.5182 114.067 89.3203C114.531 89.1172 115.057 89.0156 115.645 89.0156C116.208 89.0156 116.71 89.1042 117.153 89.2812C117.601 89.4531 117.979 89.7083 118.286 90.0469C118.598 90.3802 118.835 90.7969 118.997 91.2969C119.164 91.7969 119.247 92.3698 119.247 93.0156ZM117.856 93.0781C117.856 92.5938 117.802 92.1719 117.692 91.8125C117.588 91.4479 117.437 91.1458 117.239 90.9062C117.041 90.6615 116.799 90.4792 116.512 90.3594C116.231 90.2344 115.916 90.1719 115.567 90.1719C115.161 90.1719 114.812 90.2526 114.52 90.4141C114.234 90.5703 113.997 90.7812 113.809 91.0469C113.627 91.3125 113.492 91.6224 113.403 91.9766C113.32 92.3255 113.278 92.6927 113.278 93.0781C113.278 93.5625 113.33 93.987 113.434 94.3516C113.544 94.7161 113.697 95.0208 113.895 95.2656C114.093 95.5052 114.333 95.6875 114.614 95.8125C114.895 95.9323 115.213 95.9922 115.567 95.9922C115.973 95.9922 116.32 95.9141 116.606 95.7578C116.898 95.5964 117.135 95.3828 117.317 95.1172C117.505 94.8516 117.64 94.5443 117.723 94.1953C117.812 93.8411 117.856 93.4688 117.856 93.0781ZM127.712 89.1562L125.04 96.1719C124.764 96.8854 124.478 97.5 124.181 98.0156C123.889 98.5312 123.569 98.9531 123.22 99.2812C122.871 99.6146 122.488 99.8594 122.072 100.016C121.655 100.172 121.189 100.25 120.673 100.25C120.538 100.25 120.415 100.247 120.306 100.242C120.197 100.237 120.077 100.229 119.947 100.219V98.9844C120.061 99 120.186 99.013 120.322 99.0234C120.457 99.0391 120.6 99.0469 120.751 99.0469C121.001 99.0469 121.233 99.0104 121.447 98.9375C121.665 98.8646 121.871 98.7448 122.064 98.5781C122.256 98.4167 122.441 98.2057 122.618 97.9453C122.796 97.6849 122.967 97.3698 123.134 97L120.001 89.1562H121.548L123.533 94.3438L123.931 95.5625L124.384 94.3125L126.22 89.1562H127.712ZM135.357 97H134.138L134.092 95.7344C133.857 96.0052 133.633 96.2318 133.42 96.4141C133.211 96.5911 133.003 96.7344 132.795 96.8438C132.586 96.9531 132.375 97.0286 132.162 97.0703C131.954 97.1172 131.732 97.1406 131.498 97.1406C130.691 97.1406 130.081 96.9036 129.67 96.4297C129.258 95.9557 129.052 95.2396 129.052 94.2812V89.1562H130.412V94.1719C130.412 95.375 130.865 95.9766 131.771 95.9766C131.938 95.9766 132.099 95.9531 132.256 95.9062C132.417 95.8542 132.584 95.7682 132.756 95.6484C132.933 95.5234 133.12 95.3568 133.318 95.1484C133.521 94.9401 133.748 94.6771 133.998 94.3594V89.1562H135.357V97ZM144.424 97H142.557L138.901 92.7969V97H137.541V85.9609H138.901V92.7422L142.424 89.1562H144.221L140.541 92.7734L144.424 97Z" fill="white"/>
<path d="M73.9834 67.6465L72.9141 75H71.3687L70.3066 71.9238L70.0942 71.1768L69.8525 71.9678L68.8345 75H67.333L66.271 67.6465H67.5161L68.1313 72.6416L68.2632 73.7549L68.5781 72.7808L69.6475 69.4775H70.563L71.7129 72.7368L72.0425 73.7109L72.1523 72.6782L72.7236 67.6465H73.9834ZM82.6796 75H81.4052V70.3052C81.4052 69.7388 81.2978 69.3164 81.0829 69.0381C80.8729 68.7549 80.5702 68.6133 80.1747 68.6133C80.0038 68.6133 79.8427 68.6377 79.6913 68.6865C79.5448 68.7305 79.391 68.811 79.2299 68.9282C79.0688 69.0405 78.893 69.1943 78.7025 69.3896C78.5121 69.585 78.2924 69.8291 78.0434 70.1221V75H76.7689V64.6509H78.0434V67.6465L77.9994 68.8037C78.1996 68.5645 78.3949 68.3643 78.5854 68.2031C78.7807 68.0371 78.9735 67.9028 79.164 67.8003C79.3593 67.6978 79.557 67.6245 79.7572 67.5806C79.9574 67.5366 80.1649 67.5146 80.3798 67.5146C81.1122 67.5146 81.6786 67.7393 82.079 68.1885C82.4794 68.6328 82.6796 69.3042 82.6796 70.2026V75ZM92.7674 71.2646C92.7674 71.8359 92.6868 72.3608 92.5257 72.8394C92.3646 73.313 92.1326 73.7207 91.8299 74.0625C91.5271 74.3994 91.1585 74.6631 90.7239 74.8535C90.2894 75.0391 89.7962 75.1318 89.2444 75.1318C88.7171 75.1318 88.2435 75.0513 87.8235 74.8901C87.4085 74.7241 87.0545 74.4824 86.7615 74.165C86.4734 73.8477 86.2513 73.4546 86.095 72.9858C85.9437 72.5171 85.868 71.9775 85.868 71.3672C85.868 70.7959 85.9485 70.2759 86.1097 69.8071C86.2708 69.3335 86.5027 68.9282 86.8055 68.5913C87.1082 68.2495 87.4769 67.9858 87.9114 67.8003C88.346 67.6099 88.8392 67.5146 89.3909 67.5146C89.9183 67.5146 90.3895 67.5977 90.8045 67.7637C91.2244 67.9248 91.5784 68.1641 91.8665 68.4814C92.1595 68.7939 92.3816 69.1846 92.533 69.6533C92.6893 70.1221 92.7674 70.6592 92.7674 71.2646ZM91.4637 71.3232C91.4637 70.8691 91.4124 70.4736 91.3099 70.1367C91.2122 69.7949 91.0706 69.5117 90.8851 69.2871C90.6995 69.0576 90.4725 68.8867 90.2039 68.7744C89.9402 68.6572 89.6448 68.5986 89.3177 68.5986C88.9368 68.5986 88.6097 68.6743 88.3362 68.8257C88.0677 68.9722 87.8455 69.1699 87.6697 69.4189C87.4988 69.668 87.3719 69.9585 87.2889 70.2905C87.2107 70.6177 87.1717 70.9619 87.1717 71.3232C87.1717 71.7773 87.2205 72.1753 87.3182 72.5171C87.4207 72.8589 87.5647 73.1445 87.7503 73.374C87.9358 73.5986 88.1604 73.7695 88.4241 73.8867C88.6878 73.999 88.9856 74.0552 89.3177 74.0552C89.6985 74.0552 90.0232 73.9819 90.2918 73.8354C90.5652 73.6841 90.7874 73.4839 90.9583 73.2349C91.1341 72.9858 91.261 72.6978 91.3392 72.3706C91.4222 72.0386 91.4637 71.6895 91.4637 71.3232ZM100.687 75L100.658 74.0112C100.258 74.4067 99.8498 74.6924 99.4348 74.8682C99.0246 75.0439 98.5925 75.1318 98.1384 75.1318C97.7185 75.1318 97.3596 75.0781 97.0617 74.9707C96.7639 74.8633 96.5173 74.7168 96.322 74.5312C96.1315 74.3408 95.9899 74.1187 95.8972 73.8647C95.8093 73.6108 95.7653 73.335 95.7653 73.0371C95.7653 72.2998 96.0388 71.7236 96.5856 71.3086C97.1374 70.8887 97.9504 70.6787 99.0246 70.6787H100.548V70.0342C100.548 69.5996 100.409 69.2529 100.131 68.9941C99.8522 68.7305 99.4274 68.5986 98.8562 68.5986C98.4411 68.5986 98.031 68.645 97.6257 68.7378C97.2253 68.8306 96.8103 68.9624 96.3806 69.1333V67.9834C96.5417 67.9248 96.7199 67.8687 96.9152 67.8149C97.1154 67.7563 97.3254 67.7051 97.5451 67.6611C97.7648 67.6172 97.9943 67.583 98.2336 67.5586C98.4729 67.5293 98.7146 67.5146 98.9587 67.5146C99.403 67.5146 99.8034 67.5635 100.16 67.6611C100.516 67.7588 100.817 67.9077 101.061 68.1079C101.31 68.3081 101.5 68.5596 101.632 68.8623C101.764 69.165 101.83 69.5215 101.83 69.9316V75H100.687ZM100.548 71.6528H98.9294C98.612 71.6528 98.3386 71.6846 98.1091 71.748C97.8796 71.8115 97.6916 71.9019 97.5451 72.019C97.3986 72.1362 97.2888 72.2778 97.2155 72.4438C97.1472 72.605 97.113 72.7881 97.113 72.9932C97.113 73.1348 97.135 73.2715 97.1789 73.4033C97.2229 73.5303 97.2937 73.645 97.3913 73.7476C97.489 73.8452 97.6159 73.9233 97.7722 73.9819C97.9284 74.0405 98.1188 74.0698 98.3435 74.0698C98.6364 74.0698 98.9709 73.9819 99.3469 73.8062C99.7277 73.6255 100.128 73.3423 100.548 72.9565V71.6528ZM110.804 75V69.7192C110.804 69.4897 110.795 69.3018 110.775 69.1553C110.76 69.0088 110.733 68.894 110.694 68.811C110.66 68.7231 110.614 68.6621 110.555 68.6279C110.502 68.5938 110.433 68.5767 110.35 68.5767C110.253 68.5767 110.162 68.606 110.079 68.6646C109.996 68.7231 109.906 68.8184 109.808 68.9502C109.715 69.082 109.61 69.2578 109.493 69.4775C109.381 69.6924 109.247 69.9585 109.09 70.2759V75H107.926V69.8584C107.926 69.5898 107.916 69.3726 107.897 69.2065C107.882 69.0405 107.855 68.9111 107.816 68.8184C107.782 68.7256 107.735 68.6621 107.677 68.6279C107.618 68.5938 107.547 68.5767 107.464 68.5767C107.377 68.5767 107.294 68.6011 107.215 68.6499C107.137 68.6987 107.049 68.7866 106.952 68.9136C106.859 69.0405 106.754 69.2139 106.637 69.4336C106.52 69.6533 106.38 69.9341 106.219 70.2759V75H105.047V67.6465H106.022L106.08 69.0454C106.207 68.7671 106.329 68.5303 106.446 68.335C106.568 68.1396 106.693 67.9834 106.82 67.8662C106.947 67.7441 107.081 67.6562 107.223 67.6025C107.369 67.5439 107.53 67.5146 107.706 67.5146C108.102 67.5146 108.402 67.644 108.607 67.9028C108.812 68.1616 108.915 68.562 108.915 69.104C109.032 68.8501 109.147 68.6255 109.259 68.4302C109.371 68.23 109.491 68.064 109.618 67.9321C109.75 67.7954 109.894 67.6929 110.05 67.6245C110.206 67.5513 110.387 67.5146 110.592 67.5146C111.515 67.5146 111.976 68.2251 111.976 69.646V75H110.804ZM117.662 68.7012H115.487V67.6465H118.951V73.938H121.141V75H115.245V73.938H117.662V68.7012ZM118.109 64.563C118.25 64.563 118.382 64.5898 118.504 64.6436C118.626 64.6924 118.731 64.7632 118.819 64.856C118.912 64.9487 118.983 65.0562 119.032 65.1782C119.085 65.2954 119.112 65.4248 119.112 65.5664C119.112 65.7031 119.085 65.8325 119.032 65.9546C118.983 66.0767 118.912 66.1841 118.819 66.2769C118.731 66.3696 118.626 66.4429 118.504 66.4966C118.382 66.5454 118.25 66.5698 118.109 66.5698C117.967 66.5698 117.835 66.5454 117.713 66.4966C117.591 66.4429 117.484 66.3696 117.391 66.2769C117.303 66.1841 117.232 66.0767 117.179 65.9546C117.13 65.8325 117.105 65.7031 117.105 65.5664C117.105 65.4248 117.13 65.2954 117.179 65.1782C117.232 65.0562 117.303 64.9487 117.391 64.856C117.484 64.7632 117.591 64.6924 117.713 64.6436C117.835 64.5898 117.967 64.563 118.109 64.563Z" fill="#596371"/>
</svg>
