<svg width="30" height="30" viewBox="0 0 30 30" fill="none" xmlns="http://www.w3.org/2000/svg">
<path d="M0.974185 28.702H4.87423C5.41229 28.702 5.84842 28.2658 5.84842 27.7278V10.6808C5.84842 10.1426 5.41229 9.70657 4.87423 9.70657H0.974185C0.436077 9.70657 0 10.1426 0 10.6808V27.7278C0 28.2658 0.436077 28.702 0.974185 28.702Z" fill="white"/>
<path d="M0.974185 6.70961H4.87423C5.41229 6.70961 5.84842 6.27348 5.84842 5.73542V2.27216C5.84842 1.7341 5.41229 1.29797 4.87423 1.29797H0.974185C0.436077 1.29797 0 1.7341 0 2.27216V5.73542C0 6.27348 0.436077 6.70961 0.974185 6.70961Z" fill="white"/>
<path d="M28.5326 11.6838C27.9846 10.9624 27.1764 10.3692 26.1079 9.90418C25.0394 9.4395 23.86 9.207 22.5696 9.207C19.9499 9.207 17.7302 10.2067 15.9104 12.2066C15.5483 12.6045 15.285 12.5175 15.285 11.9794V10.6808C15.285 10.1427 14.8489 9.70658 14.3108 9.70658H10.827C10.2889 9.70658 9.85278 10.1427 9.85278 10.6808V27.7278C9.85278 28.2658 10.2889 28.702 10.827 28.702H14.727C15.2651 28.702 15.7012 28.2658 15.7012 27.7278V21.7993C15.7012 19.3295 15.8503 17.6365 16.1486 16.7208C16.4468 15.8051 16.9985 15.0697 17.8033 14.5147C18.6081 13.9597 19.5169 13.682 20.5299 13.682C21.3208 13.682 21.9973 13.8763 22.5593 14.2649C23.1213 14.6535 23.5272 15.1979 23.7769 15.8988C24.0268 16.5995 24.1516 18.1431 24.1516 20.5298V27.7277C24.1516 28.2658 24.5877 28.702 25.1258 28.702H29.0258C29.5639 28.702 29.9999 28.2658 29.9999 27.7277V18.0737C29.9999 16.3671 29.8924 15.0558 29.6775 14.1401C29.4627 13.2243 29.081 12.4056 28.5326 11.6838Z" fill="white"/>
</svg>
