<svg width="32" height="26" viewBox="0 0 32 26" fill="none" xmlns="http://www.w3.org/2000/svg">
<path d="M3.08346 22.0833L11.0001 12.5833M28.4168 22.0833L20.5001 12.5833M1.50012 6.25L12.9397 13.8763C13.9554 14.5535 14.4632 14.8921 15.0121 15.0236C15.4973 15.1399 16.003 15.1399 16.4881 15.0236C17.0371 14.8921 17.5448 14.5535 18.5605 13.8763L30.0001 6.25M6.56679 23.6667H24.9335C26.7069 23.6667 27.5938 23.6667 28.2711 23.3215C28.8669 23.018 29.3514 22.5335 29.655 21.9377C30.0001 21.2603 30.0001 20.3735 30.0001 18.6V6.56667C30.0001 4.79317 30.0001 3.90641 29.655 3.22903C29.3514 2.63318 28.8669 2.14874 28.2711 1.84515C27.5938 1.5 26.7069 1.5 24.9335 1.5H6.56679C4.7933 1.5 3.90654 1.5 3.22915 1.84515C2.6333 2.14874 2.14886 2.63318 1.84527 3.22903C1.50012 3.90641 1.50012 4.79316 1.50012 6.56667V18.6C1.50012 20.3735 1.50012 21.2603 1.84527 21.9377C2.14886 22.5335 2.6333 23.018 3.22915 23.3215C3.90654 23.6667 4.79328 23.6667 6.56679 23.6667Z" stroke="white" stroke-width="3" stroke-linecap="round" stroke-linejoin="round"/>
</svg>
