<svg width="30" height="30" viewBox="0 0 30 30" fill="none" xmlns="http://www.w3.org/2000/svg">
<path d="M10.3221 22.8279C11.3537 24.214 12.6475 25.384 14.13 26.2714V21.9943C12.8262 22.0801 11.5426 22.3611 10.3221 22.8279ZM8.595 23.6379C7.88173 24.0385 7.20738 24.5048 6.58071 25.0307H6.53786C8.49051 26.6832 10.8852 27.7263 13.425 28.0307C11.5134 26.9368 9.86478 25.4374 8.595 23.6379ZM7.76786 15.9364C7.90071 17.8371 8.44071 19.6264 9.29786 21.2164C10.8359 20.5825 12.4692 20.2102 14.13 20.115V15.9364H7.76571H7.76786ZM5.88857 15.9364H1.90714C2.11054 18.8314 3.27154 21.5763 5.20714 23.7386C5.95071 23.0957 6.75643 22.5257 7.61143 22.0393C6.60618 20.1521 6.01861 18.0707 5.88857 15.9364ZM20.8157 21.2529C21.6857 19.6521 22.23 17.8521 22.3671 15.9386H15.9707V20.1193C17.6807 20.2264 19.3114 20.6207 20.8157 21.255V21.2529ZM22.4979 22.0886C23.3164 22.56 24.09 23.1086 24.8057 23.7257C26.7336 21.5657 27.8898 18.8267 28.0929 15.9386H24.2464C24.1151 18.0909 23.5186 20.1891 22.4979 22.0886ZM15.9707 26.2886C17.4542 25.4062 18.7501 24.2414 19.785 22.86C18.564 22.383 17.2782 22.0926 15.9707 21.9986V26.2907V26.2886ZM16.7443 28.0093C19.2231 27.6796 21.5553 26.6459 23.4643 25.0307H23.4471C22.8425 24.5235 22.1935 24.0716 21.5079 23.6807C20.2501 25.4497 18.6252 26.9262 16.7443 28.0093ZM9.3 8.77714C8.41944 10.4096 7.89711 12.2111 7.76786 14.0614H14.13V9.87643C12.4701 9.78232 10.8376 9.4115 9.3 8.77929V8.77714ZM7.61357 7.95429C6.75877 7.46988 5.9535 6.90289 5.20929 6.26143C3.27412 8.42314 2.11315 11.1672 1.90929 14.0614H5.88857C6.01866 11.9255 6.60699 9.84263 7.61357 7.95429ZM14.1279 3.72857C12.649 4.61503 11.3582 5.78275 10.3286 7.16571C11.5472 7.63039 12.8286 7.90992 14.13 7.995V3.72857H14.1279ZM13.425 1.96929C10.8913 2.27175 8.50154 3.30943 6.55071 4.95429H6.56786C7.2 5.48571 7.87929 5.955 8.59714 6.35786C9.86678 4.56012 11.5147 3.06218 13.425 1.96929ZM19.7786 7.12714C18.7445 5.75029 17.4509 4.58917 15.9707 3.70929V7.98857C17.276 7.89389 18.5596 7.6035 19.7786 7.12714ZM21.4993 6.30429C22.1842 5.91325 22.8325 5.46143 23.4364 4.95429H23.4493C21.5431 3.34815 19.2174 2.32061 16.7464 1.99286C18.622 3.07286 20.243 4.54406 21.4993 6.30643V6.30429ZM22.3671 14.0614C22.2363 12.1938 21.705 10.3762 20.8093 8.73214C19.2713 9.3786 17.6357 9.7625 15.9707 9.86786V14.0614H22.3671ZM24.2464 14.0614H28.0929C27.889 11.1672 26.728 8.42314 24.7929 6.26143C24.0788 6.87811 23.3082 7.42624 22.4914 7.89857C23.49 9.75428 24.1093 11.8414 24.2464 14.0636V14.0614ZM15 30C11.0218 30 7.20644 28.4196 4.3934 25.6066C1.58035 22.7936 0 18.9782 0 15C0 11.0218 1.58035 7.20644 4.3934 4.3934C7.20644 1.58035 11.0218 0 15 0C18.9782 0 22.7936 1.58035 25.6066 4.3934C28.4196 7.20644 30 11.0218 30 15C30 18.9782 28.4196 22.7936 25.6066 25.6066C22.7936 28.4196 18.9782 30 15 30Z" fill="#26D9CA"/>
</svg>
